<svg width="24" height="24" viewBox="0 0 24 24" fill="none" xmlns="http://www.w3.org/2000/svg">
<path d="M11.7961 2.36646C11.6387 2.30336 11.463 2.30336 11.3055 2.36646L3.43469 5.51452L11.5508 8.76018L19.6669 5.51452L11.7961 2.36646ZM20.7827 6.48914L12.2102 9.91812V20.3659L20.7827 16.937V6.48914ZM10.8914 20.3673V9.9168L2.31896 6.48914V16.9383L10.8914 20.3673ZM10.8162 1.14126C11.2878 0.952668 11.8138 0.952668 12.2854 1.14126L21.6874 4.90258C21.8096 4.95157 21.9144 5.03604 21.9882 5.1451C22.062 5.25417 22.1015 5.38283 22.1015 5.51452V16.9383C22.1013 17.2018 22.0222 17.4593 21.8744 17.6774C21.7265 17.8955 21.5167 18.0644 21.2719 18.1622L11.7961 21.9525C11.6387 22.0156 11.463 22.0156 11.3055 21.9525L1.83099 18.1622C1.58602 18.0646 1.37591 17.8958 1.22781 17.6777C1.0797 17.4595 1.00039 17.202 1.00012 16.9383V5.51452C1.00015 5.38283 1.03961 5.25417 1.11342 5.1451C1.18723 5.03604 1.292 4.95157 1.41424 4.90258L10.8162 1.14126Z" fill="#555"/>
</svg>
