<svg width="24" height="24" viewBox="0 0 24 24" fill="none" xmlns="http://www.w3.org/2000/svg">
<path fill-rule="evenodd" clip-rule="evenodd" d="M2.23448 2.323C3.19297 1.46909 4.43234 0.998065 5.71602 0.999822C7.10108 0.999958 8.42938 1.55023 9.40878 2.52963C10.3883 3.50914 10.9386 4.83765 10.9386 6.2229V19.4152C10.9386 20.1007 10.6663 20.7581 10.1816 21.2428C9.69686 21.7275 9.03945 21.9998 8.35397 21.9998C7.66848 21.9998 7.01108 21.7275 6.52637 21.2428C6.04166 20.7581 5.76935 20.1007 5.76935 19.4152V11.4521C5.74134 11.4503 5.71333 11.4482 5.68532 11.4459C4.4126 11.4402 3.18533 10.9699 2.23448 10.1228C2.08539 9.98997 2.00012 9.7998 2.00012 9.60013V2.84567C2.00012 2.64599 2.08539 2.45582 2.23448 2.323ZM5.71602 0.999822C5.71619 0.999822 5.71636 0.999822 5.71653 0.999823L5.71551 1.69982V0.999822C5.71568 0.999822 5.71585 0.999822 5.71602 0.999822ZM3.40012 3.17566V9.27014C4.06382 9.77302 4.87626 10.0472 5.71448 10.046C5.73531 10.0459 5.75612 10.0468 5.77687 10.0487C5.98732 10.0672 6.19754 10.0672 6.40799 10.0487C6.60355 10.0315 6.79736 10.0972 6.94213 10.2298C7.08691 10.3624 7.16935 10.5497 7.16935 10.746V19.4152C7.16935 19.7294 7.29416 20.0307 7.51632 20.2528C7.73848 20.475 8.03979 20.5998 8.35397 20.5998C8.66815 20.5998 8.96946 20.475 9.19162 20.2528C9.41377 20.0307 9.53858 19.7294 9.53858 19.4152V6.2229C9.53858 5.20896 9.13579 4.23654 8.41883 3.51957C7.70186 2.80261 6.72945 2.39982 5.71551 2.39982L5.71448 2.39982C4.87626 2.39859 4.06382 2.67278 3.40012 3.17566ZM21.6001 3.17566C20.9364 2.67278 20.124 2.39859 19.2858 2.39982L19.2847 2.39982C18.2708 2.39982 17.2984 2.80261 16.5814 3.51957C15.8644 4.23654 15.4617 5.20895 15.4617 6.2229V19.4152C15.4617 19.7294 15.5865 20.0307 15.8086 20.2528C16.0308 20.475 16.3321 20.5998 16.6463 20.5998C16.9605 20.5998 17.2618 20.475 17.4839 20.2528C17.7061 20.0307 17.8309 19.7294 17.8309 19.4152V10.746C17.8309 10.5502 17.9129 10.3633 18.057 10.2308C18.2011 10.0982 18.3941 10.0321 18.5892 10.0484C18.8012 10.0661 19.0144 10.0661 19.2264 10.0484C19.2461 10.0468 19.2659 10.0459 19.2858 10.046C20.124 10.0472 20.9364 9.77302 21.6001 9.27014V3.17566ZM19.2847 0.999822C20.5682 0.998191 21.8074 1.46921 22.7658 2.323C22.9148 2.45582 23.0001 2.64599 23.0001 2.84567V9.60013C23.0001 9.7998 22.9148 9.98997 22.7658 10.1228C21.8145 10.9702 20.5867 11.4406 19.3134 11.4459C19.2859 11.4481 19.2584 11.45 19.2309 11.4517V19.4152C19.2309 20.1007 18.9586 20.7581 18.4739 21.2428C17.9892 21.7275 17.3318 21.9998 16.6463 21.9998C15.9608 21.9998 15.3034 21.7275 14.8187 21.2428C14.334 20.7581 14.0617 20.1007 14.0617 19.4152V6.2229C14.0617 4.83765 14.6119 3.50914 15.5915 2.52963C16.571 1.55011 17.8995 0.999822 19.2847 0.999822ZM19.2847 0.999822V1.69982L19.2837 0.999823C19.284 0.999822 19.2844 0.999822 19.2847 0.999822Z" fill="#555"/>
</svg>
