<svg width="24" height="24" viewBox="0 0 24 24" fill="none" xmlns="http://www.w3.org/2000/svg">
<path d="M6.50786 6.98296C6.61858 6.85374 6.75598 6.75002 6.9106 6.67895C7.06522 6.60788 7.2334 6.57114 7.40357 6.57125H8.85714C9.06553 6.57125 9.26538 6.48847 9.41273 6.34111C9.56008 6.19377 9.64286 5.99392 9.64286 5.78553C9.64286 5.57715 9.56008 5.3773 9.41273 5.22995C9.26538 5.0826 9.06553 4.99982 8.85714 4.99982H7.40357C7.00681 4.99973 6.61472 5.08549 6.25423 5.25123C5.89374 5.41696 5.57338 5.65874 5.31514 5.95996L1.66157 10.2225C1.23449 10.721 0.999825 11.3559 1 12.0123V15.607C1 16.5447 1.37251 17.444 2.03559 18.1071C2.69866 18.7702 3.59798 19.1427 4.53571 19.1427H7.67857C8.6163 19.1427 9.51562 18.7702 10.1787 18.1071C10.8418 17.444 11.2143 16.5447 11.2143 15.607V13.6427H12.7857V15.607C12.7857 16.5447 13.1582 17.444 13.8213 18.1071C14.4844 18.7702 15.3837 19.1427 16.3214 19.1427H19.4643C20.402 19.1427 21.3013 18.7702 21.9644 18.1071C22.6275 17.444 23 16.5447 23 15.607V12.0123C23 11.3558 22.765 10.7209 22.3376 10.2225L18.6841 5.95996C18.4259 5.65884 18.1057 5.41712 17.7453 5.25139C17.385 5.08566 16.9931 4.99984 16.5964 4.99982H15.1429C14.9345 4.99982 14.7346 5.0826 14.5873 5.22995C14.4399 5.3773 14.3571 5.57715 14.3571 5.78553C14.3571 5.99392 14.4399 6.19377 14.5873 6.34111C14.7346 6.48847 14.9345 6.57125 15.1429 6.57125H16.5964C16.7665 6.57125 16.9345 6.60805 17.089 6.67912C17.2435 6.75019 17.3807 6.85384 17.4914 6.98296L19.8328 9.7141H15.5357C14.8743 9.71393 14.235 9.95214 13.735 10.3851C13.235 10.818 12.9077 11.4166 12.8132 12.0712H11.1868C11.0923 11.4166 10.7651 10.818 10.265 10.3851C9.76499 9.95214 9.12569 9.71393 8.46429 9.7141H4.16721L6.50786 6.98296ZM21.4286 12.4641V15.607C21.4286 16.1279 21.2216 16.6275 20.8532 16.9959C20.4849 17.3643 19.9852 17.5712 19.4643 17.5712H16.3214C15.8005 17.5712 15.3008 17.3643 14.9325 16.9959C14.5641 16.6275 14.3571 16.1279 14.3571 15.607V12.4641C14.3571 12.1515 14.4813 11.8518 14.7023 11.6307C14.9234 11.4097 15.2231 11.2855 15.5357 11.2855H20.25C20.5626 11.2855 20.8624 11.4097 21.0834 11.6307C21.3044 11.8518 21.4286 12.1515 21.4286 12.4641ZM9.64286 12.4641V15.607C9.64286 16.1279 9.43591 16.6275 9.06753 16.9959C8.69916 17.3643 8.19953 17.5712 7.67857 17.5712H4.53571C4.01475 17.5712 3.51513 17.3643 3.14675 16.9959C2.77838 16.6275 2.57143 16.1279 2.57143 15.607V12.4641C2.57143 12.1515 2.6956 11.8518 2.91662 11.6307C3.13765 11.4097 3.43742 11.2855 3.75 11.2855H8.46429C8.77686 11.2855 9.07664 11.4097 9.29766 11.6307C9.51869 11.8518 9.64286 12.1515 9.64286 12.4641Z" fill="#555"/>
</svg>
