<svg width="24" height="24" viewBox="0 0 24 24" fill="none" xmlns="http://www.w3.org/2000/svg">
<path d="M17.6708 7.45482C17.6708 7.75319 17.5523 8.03933 17.3413 8.25031C17.1303 8.46129 16.8441 8.57982 16.5458 8.57982C16.2474 8.57982 15.9613 8.46129 15.7503 8.25031C15.5393 8.03933 15.4208 7.75319 15.4208 7.45482C15.4208 7.15645 15.5393 6.8703 15.7503 6.65932C15.9613 6.44834 16.2474 6.32982 16.5458 6.32982C16.8441 6.32982 17.1303 6.44834 17.3413 6.65932C17.5523 6.8703 17.6708 7.15645 17.6708 7.45482ZM15.1958 2.99982C13.6326 3.00077 12.1338 3.62216 11.0284 4.72748C9.92312 5.8328 9.30173 7.33166 9.30078 8.89482C9.30078 9.24312 9.34578 9.57882 9.39978 9.88842C9.40732 9.9274 9.40554 9.9676 9.39459 10.0058C9.38365 10.0439 9.36384 10.079 9.33678 10.108L3.72528 15.7204C3.26107 16.1844 3.00014 16.8137 2.99988 17.47V19.4248C2.99988 20.2942 3.70548 20.9998 4.57488 20.9998H6.82488C7.24259 20.9998 7.6432 20.8339 7.93857 20.5385C8.23394 20.2431 8.39988 19.8425 8.39988 19.4248V18.2998H9.97578C10.5968 18.2998 11.1008 17.7958 11.1008 17.1748V15.5998H12.6758C12.9671 15.6 13.2472 15.4872 13.457 15.2851C13.6668 15.083 13.7901 14.8074 13.8008 14.5162C14.2472 14.6314 14.7188 14.6998 15.1958 14.6998C16.7589 14.6989 18.2578 14.0775 19.3631 12.9722C20.4684 11.8668 21.0898 10.368 21.0908 8.80482C21.0908 5.53692 18.4331 2.99982 15.1958 2.99982ZM10.6508 8.89482C10.6517 7.6897 11.1309 6.53422 11.983 5.68207C12.8352 4.82992 13.9907 4.35077 15.1958 4.34982C17.7176 4.34982 19.7408 6.31272 19.7408 8.80482C19.7398 10.0099 19.2607 11.1654 18.4085 12.0176C17.5564 12.8697 16.4009 13.3489 15.1958 13.3498C14.5838 13.3498 13.9538 13.1959 13.3913 12.9538C13.2885 12.9097 13.1764 12.8918 13.0651 12.9017C12.9537 12.9116 12.8465 12.949 12.7532 13.0106C12.6599 13.0721 12.5833 13.1559 12.5303 13.2544C12.4774 13.3529 12.4497 13.463 12.4499 13.5748V14.2498H10.8758C10.2548 14.2498 9.75078 14.7538 9.75078 15.3748V16.9498H8.17578C7.55478 16.9498 7.05078 17.4538 7.05078 18.0748V19.4248C7.05078 19.4845 7.02707 19.5417 6.98488 19.5839C6.94268 19.6261 6.88545 19.6498 6.82578 19.6498H4.57578C4.5161 19.6498 4.45887 19.6261 4.41668 19.5839C4.37448 19.5417 4.35078 19.4845 4.35078 19.4248V17.47C4.35078 17.1721 4.46958 16.885 4.68018 16.6744L10.2926 11.0629C10.4735 10.8809 10.6077 10.6578 10.6839 10.4127C10.76 10.1677 10.7758 9.90782 10.73 9.65532C10.6821 9.40452 10.6556 9.1501 10.6508 8.89482Z" fill="#555"/>
</svg>
