<svg width="26" height="39" viewBox="0 0 26 39" fill="none" xmlns="http://www.w3.org/2000/svg">
<path d="M19.6992 27.6133C22.796 28.6609 24.7615 30.4503 24.7617 32.5684C24.7617 35.9637 19.6987 38.5254 12.9922 38.5254C6.28584 38.5253 1.22363 35.9636 1.22363 32.5684C1.22385 30.4733 3.15824 28.6988 6.2168 27.6436C6.76737 28.3088 7.32638 28.9436 7.87695 29.54C5.10889 30.2894 3.52559 31.5668 3.52539 32.5762C3.52539 34.1056 7.1271 36.2392 13 36.2393C18.8729 36.2393 22.4746 34.1056 22.4746 32.5762C22.4744 31.5591 20.8686 30.2671 18.0547 29.5254C18.6053 28.9289 19.1564 28.2864 19.707 27.6211L19.6992 27.6133ZM13 0C20.1806 0 26 5.98789 26 13.2373C25.9998 20.4866 15.6231 30.9471 13 32.5762C10.2545 30.863 0.000230064 20.5478 0 13.2373C0 5.92672 5.81941 1.31186e-07 13 0Z" fill="#009DE0"/>
</svg>
