<svg width="24" height="24" viewBox="0 0 24 24" fill="none" xmlns="http://www.w3.org/2000/svg">
<path d="M21.4564 7.97344C21.2897 7.90795 21.1123 7.87455 20.9332 7.875H20.9145C19.969 7.88906 18.9087 8.77453 18.3523 10.1138C17.6853 11.7159 17.9923 13.3552 19.0432 13.7766C19.2097 13.8421 19.387 13.8755 19.5659 13.875C20.516 13.875 21.5909 12.9844 22.152 11.6363C22.8143 10.0341 22.5026 8.39484 21.4564 7.97344ZM15.356 14.2256C14.0529 12.0633 13.4904 11.25 11.9998 11.25C10.5092 11.25 9.94198 12.0684 8.63886 14.2256C7.52323 16.0706 5.26854 16.2244 4.70604 17.7914C4.59191 18.0784 4.5346 18.3849 4.53729 18.6937C4.53729 19.9683 5.51229 21 6.71229 21C8.20292 21 10.2326 19.8098 12.0045 19.8098C13.7764 19.8098 15.7967 21 17.2873 21C18.4873 21 19.4576 19.9687 19.4576 18.6937C19.4587 18.3846 19.3998 18.0781 19.2842 17.7914C18.7217 16.2187 16.4717 16.0706 15.356 14.2256ZM9.0237 9.1875C9.08646 9.18756 9.14914 9.18286 9.2112 9.17344C10.2992 9.01547 10.9784 7.50797 10.7318 5.80547C10.4998 4.20047 9.52573 3 8.50714 3C8.44437 2.99994 8.38169 3.00465 8.31964 3.01406C7.23167 3.17203 6.55245 4.67953 6.79901 6.38203C7.03104 7.98234 8.00511 9.1875 9.0237 9.1875ZM17.1992 6.38203C17.4457 4.67953 16.7665 3.17203 15.6785 3.01406C15.6165 3.00465 15.5538 2.99994 15.491 3C14.4725 3 13.5003 4.20047 13.2678 5.80547C13.0212 7.50797 13.7004 9.01547 14.7884 9.17344C14.8504 9.18286 14.9131 9.18756 14.9759 9.1875C15.9945 9.1875 16.9685 7.98234 17.1992 6.38203ZM4.95776 13.7766C6.00729 13.3547 6.31385 11.7141 5.64776 10.1138C5.08714 8.76563 4.01323 7.875 3.06448 7.875C2.88561 7.8745 2.70826 7.9079 2.54182 7.97344C1.49229 8.39531 1.18573 10.0359 1.85182 11.6363C2.41245 12.9844 3.48636 13.875 4.43511 13.875C4.61398 13.8755 4.79133 13.8421 4.95776 13.7766Z" stroke="#555" stroke-width="1.2" stroke-miterlimit="10"/>
</svg>
