<svg width="24" height="24" viewBox="0 0 24 24" fill="none" xmlns="http://www.w3.org/2000/svg">
<path d="M12.0001 2.49982C13.1762 2.49946 14.3215 2.87611 15.2678 3.57449C16.2141 4.27287 16.9116 5.25619 17.2579 6.38014C17.6043 7.50409 17.5812 8.70946 17.1921 9.81933C16.803 10.9292 16.0684 11.8851 15.0961 12.5468C16.7838 13.1658 18.2476 14.2757 19.299 15.7337C20.3505 17.1917 20.9416 18.9311 20.9961 20.7278C21.0012 20.8276 20.9864 20.9273 20.9524 21.0212C20.9184 21.1151 20.866 21.2013 20.7983 21.2747C20.7306 21.3481 20.6489 21.4072 20.558 21.4486C20.4672 21.49 20.3689 21.5129 20.2691 21.5158C20.1693 21.5187 20.0699 21.5017 19.9767 21.4657C19.8836 21.4297 19.7986 21.3754 19.7267 21.3061C19.6548 21.2369 19.5974 21.1539 19.558 21.0621C19.5186 20.9704 19.4979 20.8717 19.4971 20.7718C19.4376 18.8233 18.6217 16.9745 17.2223 15.6172C15.8229 14.26 13.9501 13.5009 12.0006 13.5009C10.0512 13.5009 8.17832 14.26 6.77895 15.6172C5.37958 16.9745 4.56367 18.8233 4.50412 20.7718C4.49815 20.9707 4.41341 21.1591 4.26854 21.2956C4.12367 21.432 3.93053 21.5053 3.73162 21.4993C3.53271 21.4933 3.34431 21.4086 3.20788 21.2637C3.07145 21.1189 2.99815 20.9257 3.00412 20.7268C3.05887 18.9302 3.65002 17.1911 4.70148 15.7333C5.75295 14.2755 7.21662 13.1658 8.90412 12.5468C7.93181 11.8851 7.1972 10.9292 6.80812 9.81933C6.41905 8.70946 6.39599 7.50409 6.74233 6.38014C7.08868 5.25619 7.78619 4.27287 8.73248 3.57449C9.67878 2.87611 10.824 2.49946 12.0001 2.49982ZM8.00012 7.99982C8.00012 9.06068 8.42155 10.0781 9.17169 10.8282C9.92184 11.5784 10.9393 11.9998 12.0001 11.9998C13.061 11.9998 14.0784 11.5784 14.8285 10.8282C15.5787 10.0781 16.0001 9.06068 16.0001 7.99982C16.0001 6.93895 15.5787 5.92154 14.8285 5.17139C14.0784 4.42124 13.061 3.99982 12.0001 3.99982C10.9393 3.99982 9.92184 4.42124 9.17169 5.17139C8.42155 5.92154 8.00012 6.93895 8.00012 7.99982Z" fill="#555"/>
</svg>
