<svg width="24" height="24" viewBox="0 0 24 24" fill="none" xmlns="http://www.w3.org/2000/svg">
<path d="M7.68738 1.49982C7.04091 1.49982 6.42093 1.75662 5.96381 2.21374C5.50669 2.67086 5.24988 3.29085 5.24988 3.93732V20.0623C5.24988 20.7088 5.50669 21.3288 5.96381 21.7859C6.42093 22.243 7.04091 22.4998 7.68738 22.4998H16.3124C16.9588 22.4998 17.5788 22.243 18.036 21.7859C18.4931 21.3288 18.7499 20.7088 18.7499 20.0623V3.93732C18.7499 3.29085 18.4931 2.67086 18.036 2.21374C17.5788 1.75662 16.9588 1.49982 16.3124 1.49982H7.68738ZM6.74988 3.93732C6.74988 3.41982 7.16988 2.99982 7.68738 2.99982H16.3124C16.8299 2.99982 17.2499 3.41982 17.2499 3.93732V20.0623C17.2499 20.5798 16.8299 20.9998 16.3124 20.9998H7.68738C7.16988 20.9998 6.74988 20.5798 6.74988 20.0623V3.93732ZM10.4999 17.9998C10.301 17.9998 10.1102 18.0788 9.96955 18.2195C9.8289 18.3601 9.74988 18.5509 9.74988 18.7498C9.74988 18.9487 9.8289 19.1395 9.96955 19.2801C10.1102 19.4208 10.301 19.4998 10.4999 19.4998H13.4999C13.6988 19.4998 13.8896 19.4208 14.0302 19.2801C14.1709 19.1395 14.2499 18.9487 14.2499 18.7498C14.2499 18.5509 14.1709 18.3601 14.0302 18.2195C13.8896 18.0788 13.6988 17.9998 13.4999 17.9998H10.4999Z" fill="#555"/>
</svg>
