<svg width="26" height="39" viewBox="0 0 26 39" fill="none" xmlns="http://www.w3.org/2000/svg">
<path fill-rule="evenodd" clip-rule="evenodd" d="M26 13.2371C26 20.4865 15.6229 30.9476 13 32.5765C10.2547 30.8635 0 20.5476 0 13.2371C0 5.92647 5.81941 0 13 0C20.1806 0 26 5.98765 26 13.2371ZM18.0548 29.5252C18.6054 28.9287 19.156 28.2864 19.7065 27.6211L19.6989 27.6134C22.796 28.6611 24.7613 30.4505 24.7613 32.5687C24.7613 35.964 19.6989 38.5258 12.9924 38.5258C6.28596 38.5258 1.2236 35.964 1.2236 32.5687C1.2236 30.4734 3.15831 28.6993 6.21713 27.644C6.76772 28.3093 7.32596 28.944 7.87655 29.5405C5.10831 30.2899 3.52537 31.567 3.52537 32.5764C3.52537 34.1058 7.12713 36.2393 13.0001 36.2393C18.873 36.2393 22.4748 34.1058 22.4748 32.5764C22.4748 31.5593 20.8689 30.267 18.0548 29.5252Z" fill="#0090F8"/>
<path d="M13.0001 5.87488C13.8821 5.87461 14.7411 6.1571 15.4508 6.68088C16.1605 7.20467 16.6836 7.94216 16.9434 8.78512C17.2032 9.62808 17.1859 10.5321 16.8941 11.3645C16.6023 12.1969 16.0513 12.9139 15.3221 13.4101C16.5878 13.8744 17.6856 14.7068 18.4742 15.8003C19.2629 16.8938 19.7061 18.1983 19.7471 19.5459C19.7509 19.6207 19.7397 19.6955 19.7143 19.7659C19.6888 19.8364 19.6495 19.901 19.5987 19.956C19.5479 20.0111 19.4867 20.0554 19.4185 20.0865C19.3503 20.1175 19.2767 20.1347 19.2018 20.1369C19.1269 20.1391 19.0524 20.1263 18.9825 20.0993C18.9127 20.0723 18.8489 20.0316 18.795 19.9796C18.741 19.9277 18.698 19.8654 18.6685 19.7966C18.6389 19.7278 18.6234 19.6538 18.6228 19.5789C18.5781 18.1175 17.9662 16.7309 16.9167 15.7129C15.8672 14.695 14.4625 14.1257 13.0004 14.1257C11.5383 14.1257 10.1337 14.695 9.08418 15.7129C8.03466 16.7309 7.42272 18.1175 7.37806 19.5789C7.37359 19.7281 7.31003 19.8694 7.20138 19.9717C7.09272 20.074 6.94787 20.129 6.79869 20.1245C6.6495 20.12 6.50821 20.0565 6.40588 19.9478C6.30356 19.8392 6.24859 19.6943 6.25306 19.5451C6.29412 18.1977 6.73748 16.8934 7.52608 15.8C8.31468 14.7067 9.41243 13.8743 10.6781 13.4101C9.94883 12.9139 9.39787 12.1969 9.10606 11.3645C8.81425 10.5321 8.79696 9.62808 9.05672 8.78512C9.31648 7.94216 9.83961 7.20467 10.5493 6.68088C11.2591 6.1571 12.118 5.87461 13.0001 5.87488ZM10.0001 9.99988C10.0001 10.7955 10.3161 11.5586 10.8787 12.1212C11.4413 12.6838 12.2044 12.9999 13.0001 12.9999C13.7957 12.9999 14.5588 12.6838 15.1214 12.1212C15.684 11.5586 16.0001 10.7955 16.0001 9.99988C16.0001 9.20423 15.684 8.44117 15.1214 7.87856C14.5588 7.31595 13.7957 6.99988 13.0001 6.99988C12.2044 6.99988 11.4413 7.31595 10.8787 7.87856C10.3161 8.44117 10.0001 9.20423 10.0001 9.99988Z" fill="white"/>
</svg>
