<svg width="28" height="40" viewBox="-1 -1 28 40" fill="none" xmlns="http://www.w3.org/2000/svg">
  <defs>
    <linearGradient id="goldFill10" x1="0" y1="0" x2="0" y2="1">
      <stop offset="0%" stop-color="#FFF0A0"/>
      <stop offset="20%" stop-color="#FFD700"/>
      <stop offset="50%" stop-color="#B8860B"/>
      <stop offset="75%" stop-color="#FFD700"/>
      <stop offset="100%" stop-color="#8B6914"/>
    </linearGradient>

    <filter id="shinyGlow10" x="-30%" y="-30%" width="160%" height="160%">
      <feGaussianBlur stdDeviation="0.8" result="blur1"/>
      <feGaussianBlur stdDeviation="0.3" result="blur2"/>
      <feMerge>
        <feMergeNode in="blur1"/>
        <feMergeNode in="blur2"/>
        <feMergeNode in="SourceGraphic"/>
      </feMerge>
    </filter>

    <linearGradient id="outlineGradient10" x1="0" y1="0" x2="1" y2="1">
      <stop offset="0%" stop-color="#FFFDE0"/>
      <stop offset="30%" stop-color="#FFE55C"/>
      <stop offset="60%" stop-color="#FFC200"/>
      <stop offset="80%" stop-color="#FFFDE0"/>
      <stop offset="100%" stop-color="#FFD700"/>
    </linearGradient>
  </defs>

  <!-- Glowing outline layer -->
  <g filter="url(#shinyGlow10)">
    <path fill-rule="evenodd" clip-rule="evenodd"
      d="M26 13.2371C26 20.4865 15.6229 30.9476 13 32.5765C10.2547 30.8635 0 20.5476 0 13.2371C0 5.92647 5.81941 0 13 0C20.1806 0 26 5.98765 26 13.2371ZM18.0548 29.5252C18.6054 28.9287 19.156 28.2864 19.7065 27.6211L19.6989 27.6134C22.796 28.6611 24.7613 30.4505 24.7613 32.5687C24.7613 35.964 19.6989 38.5258 12.9924 38.5258C6.28596 38.5258 1.2236 35.964 1.2236 32.5687C1.2236 30.4734 3.15831 28.6993 6.21713 27.644C6.76772 28.3093 7.32596 28.944 7.87655 29.5405C5.10831 30.2899 3.52537 31.567 3.52537 32.5764C3.52537 34.1058 7.12713 36.2393 13.0001 36.2393C18.873 36.2393 22.4748 34.1058 22.4748 32.5764C22.4748 31.5593 20.8689 30.267 18.0548 29.5252Z"
      fill="none"
      stroke="url(#outlineGradient10)"
      stroke-width="1.5"
      stroke-linejoin="round"
    />
  </g>

  <!-- Main gold body -->
  <path fill-rule="evenodd" clip-rule="evenodd"
    d="M26 13.2371C26 20.4865 15.6229 30.9476 13 32.5765C10.2547 30.8635 0 20.5476 0 13.2371C0 5.92647 5.81941 0 13 0C20.1806 0 26 5.98765 26 13.2371ZM18.0548 29.5252C18.6054 28.9287 19.156 28.2864 19.7065 27.6211L19.6989 27.6134C22.796 28.6611 24.7613 30.4505 24.7613 32.5687C24.7613 35.964 19.6989 38.5258 12.9924 38.5258C6.28596 38.5258 1.2236 35.964 1.2236 32.5687C1.2236 30.4734 3.15831 28.6993 6.21713 27.644C6.76772 28.3093 7.32596 28.944 7.87655 29.5405C5.10831 30.2899 3.52537 31.567 3.52537 32.5764C3.52537 34.1058 7.12713 36.2393 13.0001 36.2393C18.873 36.2393 22.4748 34.1058 22.4748 32.5764C22.4748 31.5593 20.8689 30.267 18.0548 29.5252Z"
    fill="url(#goldFill10)"
  />

  <!-- Icon path — white -->
  <path
    d="M14.767 5.94627C14.7828 5.92637 14.8025 5.90989 14.8249 5.89784C14.8473 5.88579 14.8719 5.87841 14.8972 5.87617C14.9226 5.87392 14.9481 5.87685 14.9722 5.88478C14.9964 5.8927 15.0187 5.90546 15.0378 5.92227L15.7292 6.53127L13.5543 9.25002H14.9943L16.5737 7.27602L17.8127 8.36877C17.8494 8.40114 17.8719 8.44655 17.8756 8.4953C17.8792 8.54406 17.8637 8.59231 17.8323 8.62977L17.3148 9.25002H18.7728C18.9534 8.98563 19.0311 8.66434 18.9913 8.34663C18.9515 8.02892 18.797 7.73672 18.5568 7.52502L15.7817 5.07777C15.6479 4.95987 15.4914 4.8705 15.3218 4.81511C15.1522 4.75973 14.9732 4.73949 14.7955 4.75563C14.6179 4.77177 14.4454 4.82396 14.2886 4.90901C14.1318 4.99405 13.9939 5.11017 13.8835 5.25027L10.732 9.25002H12.1645L14.767 5.94627ZM16.1875 14.5C16.0383 14.5 15.8952 14.5593 15.7898 14.6648C15.6843 14.7703 15.625 14.9133 15.625 15.0625C15.625 15.2117 15.6843 15.3548 15.7898 15.4603C15.8952 15.5658 16.0383 15.625 16.1875 15.625H17.6875C17.8367 15.625 17.9798 15.5658 18.0852 15.4603C18.1907 15.3548 18.25 15.2117 18.25 15.0625C18.25 14.9133 18.1907 14.7703 18.0852 14.6648C17.9798 14.5593 17.8367 14.5 17.6875 14.5H16.1875ZM7.375 9.43752C7.375 9.28833 7.43426 9.14526 7.53975 9.03977C7.64524 8.93428 7.78832 8.87502 7.9375 8.87502H10.2835L11.1775 7.75002H7.9375C7.48995 7.75002 7.06072 7.92781 6.74426 8.24428C6.42779 8.56074 6.25 8.98997 6.25 9.43752V17.3125C6.25 17.959 6.50681 18.579 6.96393 19.0361C7.42105 19.4932 8.04103 19.75 8.6875 19.75H17.6875C18.334 19.75 18.954 19.4932 19.4111 19.0361C19.8682 18.579 20.125 17.959 20.125 17.3125V12.4375C20.125 11.7911 19.8682 11.1711 19.4111 10.7139C18.954 10.2568 18.334 10 17.6875 10H7.9375C7.78832 10 7.64524 9.94075 7.53975 9.83527C7.43426 9.72978 7.375 9.5867 7.375 9.43752ZM7.375 17.3125V11.029C7.552 11.092 7.7395 11.124 7.9375 11.125H17.6875C18.412 11.125 19 11.713 19 12.4375V17.3125C19 17.6606 18.8617 17.9945 18.6156 18.2406C18.3694 18.4867 18.0356 18.625 17.6875 18.625H8.6875C8.3394 18.625 8.00556 18.4867 7.75942 18.2406C7.51328 17.9945 7.375 17.6606 7.375 17.3125Z"
    fill="white"
  />
</svg>