<svg width="26" height="39" viewBox="0 0 26 39" fill="none" xmlns="http://www.w3.org/2000/svg">
<path fill-rule="evenodd" clip-rule="evenodd" d="M26 13.2371C26 20.4865 15.6229 30.9476 13 32.5765C10.2547 30.8635 0 20.5476 0 13.2371C0 5.92647 5.81941 0 13 0C20.1806 0 26 5.98765 26 13.2371ZM18.0548 29.5252C18.6054 28.9287 19.156 28.2864 19.7065 27.6211L19.6989 27.6134C22.796 28.6611 24.7613 30.4505 24.7613 32.5687C24.7613 35.964 19.6989 38.5258 12.9924 38.5258C6.28596 38.5258 1.2236 35.964 1.2236 32.5687C1.2236 30.4734 3.15831 28.6993 6.21713 27.644C6.76772 28.3093 7.32596 28.944 7.87655 29.5405C5.10831 30.2899 3.52537 31.567 3.52537 32.5764C3.52537 34.1058 7.12713 36.2393 13.0001 36.2393C18.873 36.2393 22.4748 34.1058 22.4748 32.5764C22.4748 31.5593 20.8689 30.267 18.0548 29.5252Z" fill="#0090F8"/>
<path d="M8.49987 6.99988H10.7499C10.7499 6.99988 10.7499 9.24988 12.9999 9.24988C15.2499 9.24988 15.2499 6.99988 15.2499 6.99988H17.4999M17.4999 12.2499V18.5499C17.4999 18.6692 17.4525 18.7837 17.3681 18.8681C17.2837 18.9525 17.1692 18.9999 17.0499 18.9999H8.94987C8.83052 18.9999 8.71606 18.9525 8.63167 18.8681C8.54728 18.7837 8.49987 18.6692 8.49987 18.5499V12.2499M17.4999 6.99988L20.8321 8.33263C20.9429 8.37699 21.0315 8.46354 21.0785 8.57325C21.1255 8.68296 21.127 8.80683 21.0826 8.91763L19.8631 11.9671C19.8297 12.0506 19.772 12.1221 19.6976 12.1725C19.6231 12.2229 19.5353 12.2499 19.4454 12.2499H17.4999M8.49987 6.99988L5.16762 8.33263C5.05683 8.37699 4.96819 8.46354 4.92122 8.57325C4.87424 8.68296 4.87277 8.80683 4.91712 8.91763L6.13662 11.9671C6.17004 12.0506 6.22769 12.1221 6.30215 12.1725C6.37661 12.2229 6.46446 12.2499 6.55437 12.2499H8.49987" stroke="white" stroke-linecap="round" stroke-linejoin="round"/>
</svg>
