<svg width="28" height="40" viewBox="-1 -1 28 40" fill="none" xmlns="http://www.w3.org/2000/svg">
  <defs>
    <linearGradient id="goldFill" x1="0" y1="0" x2="0" y2="1">
      <stop offset="0%" stop-color="#FFF0A0"/>
      <stop offset="20%" stop-color="#FFD700"/>
      <stop offset="50%" stop-color="#B8860B"/>
      <stop offset="75%" stop-color="#FFD700"/>
      <stop offset="100%" stop-color="#8B6914"/>
    </linearGradient>

    <filter id="shinyGlow" x="-30%" y="-30%" width="160%" height="160%">
      <feGaussianBlur stdDeviation="0.8" result="blur1"/>
      <feGaussianBlur stdDeviation="0.3" result="blur2"/>
      <feMerge>
        <feMergeNode in="blur1"/>
        <feMergeNode in="blur2"/>
        <feMergeNode in="SourceGraphic"/>
      </feMerge>
    </filter>

    <linearGradient id="outlineGradient" x1="0" y1="0" x2="1" y2="1">
      <stop offset="0%" stop-color="#FFFDE0"/>
      <stop offset="30%" stop-color="#FFE55C"/>
      <stop offset="60%" stop-color="#FFC200"/>
      <stop offset="80%" stop-color="#FFFDE0"/>
      <stop offset="100%" stop-color="#FFD700"/>
    </linearGradient>
  </defs>

  <!-- Glowing outline layer -->
  <g filter="url(#shinyGlow)">
    <path fill-rule="evenodd" clip-rule="evenodd"
      d="M26 13.2371C26 20.4865 15.6229 30.9476 13 32.5765C10.2547 30.8635 0 20.5476 0 13.2371C0 5.92647 5.81941 0 13 0C20.1806 0 26 5.98765 26 13.2371ZM18.0548 29.5252C18.6054 28.9287 19.156 28.2864 19.7065 27.6211L19.6989 27.6134C22.796 28.6611 24.7613 30.4505 24.7613 32.5687C24.7613 35.964 19.6989 38.5258 12.9924 38.5258C6.28596 38.5258 1.2236 35.964 1.2236 32.5687C1.2236 30.4734 3.15831 28.6993 6.21713 27.644C6.76772 28.3093 7.32596 28.944 7.87655 29.5405C5.10831 30.2899 3.52537 31.567 3.52537 32.5764C3.52537 34.1058 7.12713 36.2393 13.0001 36.2393C18.873 36.2393 22.4748 34.1058 22.4748 32.5764C22.4748 31.5593 20.8689 30.267 18.0548 29.5252Z"
      fill="none"
      stroke="url(#outlineGradient)"
      stroke-width="1.5"
      stroke-linejoin="round"
    />
  </g>

  <!-- Main gold body -->
  <path fill-rule="evenodd" clip-rule="evenodd"
    d="M26 13.2371C26 20.4865 15.6229 30.9476 13 32.5765C10.2547 30.8635 0 20.5476 0 13.2371C0 5.92647 5.81941 0 13 0C20.1806 0 26 5.98765 26 13.2371ZM18.0548 29.5252C18.6054 28.9287 19.156 28.2864 19.7065 27.6211L19.6989 27.6134C22.796 28.6611 24.7613 30.4505 24.7613 32.5687C24.7613 35.964 19.6989 38.5258 12.9924 38.5258C6.28596 38.5258 1.2236 35.964 1.2236 32.5687C1.2236 30.4734 3.15831 28.6993 6.21713 27.644C6.76772 28.3093 7.32596 28.944 7.87655 29.5405C5.10831 30.2899 3.52537 31.567 3.52537 32.5764C3.52537 34.1058 7.12713 36.2393 13.0001 36.2393C18.873 36.2393 22.4748 34.1058 22.4748 32.5764C22.4748 31.5593 20.8689 30.267 18.0548 29.5252Z"
    fill="url(#goldFill)"
  />

  <!-- Icon paths — white, thicker stroke -->
  <path fill-rule="evenodd" clip-rule="evenodd"
    d="M5.67589 5.74227C6.39476 5.10183 7.32429 4.74856 8.28705 4.74988C9.32584 4.74998 10.3221 5.16269 11.0566 5.89723C11.7913 6.63187 12.204 7.62825 12.204 8.66719V18.5614C12.204 19.0755 11.9997 19.5686 11.6362 19.9321C11.2727 20.2956 10.7796 20.4999 10.2655 20.4999C9.75139 20.4999 9.25834 20.2956 8.89481 19.9321C8.53128 19.5686 8.32704 19.0755 8.32704 18.5614V12.5891C8.30604 12.5877 8.28503 12.5862 8.26402 12.5845C7.30948 12.5802 6.38903 12.2274 5.67589 11.5921C5.56408 11.4925 5.50012 11.3499 5.50012 11.2001V6.13427C5.50012 5.98451 5.56408 5.84188 5.67589 5.74227ZM8.28705 4.74988C8.28717 4.74988 8.2873 4.74988 8.28743 4.74988L8.28666 5.27488V4.74988C8.28679 4.74988 8.28692 4.74988 8.28705 4.74988ZM6.55012 6.38176V10.9526C7.0479 11.3298 7.65722 11.5354 8.28589 11.5345C8.30151 11.5345 8.31712 11.5351 8.33268 11.5365C8.49052 11.5504 8.64818 11.5504 8.80602 11.5365C8.9527 11.5236 9.09805 11.5729 9.20663 11.6723C9.31521 11.7718 9.37704 11.9123 9.37704 12.0595V18.5614C9.37704 18.7971 9.47065 19.023 9.63727 19.1897C9.80389 19.3563 10.0299 19.4499 10.2655 19.4499C10.5011 19.4499 10.7271 19.3563 10.8937 19.1897C11.0604 19.023 11.154 18.7971 11.154 18.5614V8.66719C11.154 7.90673 10.8519 7.17742 10.3142 6.6397C9.77643 6.10197 9.04712 5.79988 8.28666 5.79988L8.28589 5.79988C7.65722 5.79896 7.0479 6.0046 6.55012 6.38176ZM20.2001 6.38176C19.7023 6.0046 19.093 5.79896 18.4644 5.79988L18.4636 5.79988C17.7031 5.79988 16.9738 6.10197 16.4361 6.6397C15.8984 7.17742 15.5963 7.90673 15.5963 8.66719V18.5614C15.5963 18.7971 15.6899 19.023 15.8565 19.1897C16.0231 19.3563 16.2491 19.4499 16.4847 19.4499C16.7204 19.4499 16.9464 19.3563 17.113 19.1897C17.2796 19.023 17.3732 18.7971 17.3732 18.5614V12.0595C17.3732 11.9127 17.4347 11.7725 17.5428 11.6731C17.6508 11.5737 17.7956 11.5241 17.9419 11.5363C18.101 11.5496 18.2608 11.5496 18.4198 11.5363C18.4346 11.5351 18.4495 11.5345 18.4644 11.5345C19.093 11.5354 19.7023 11.3298 20.2001 10.9526V6.38176ZM18.4636 4.74988C19.4262 4.74866 20.3556 5.10192 21.0744 5.74227C21.1862 5.84188 21.2501 5.98451 21.2501 6.13427V11.2001C21.2501 11.3499 21.1862 11.4925 21.0744 11.5921C20.3609 12.2277 19.4401 12.5804 18.4851 12.5845C18.4645 12.5861 18.4438 12.5875 18.4232 12.5888V18.5614C18.4232 19.0755 18.219 19.5686 17.8554 19.9321C17.4919 20.2956 16.9988 20.4999 16.4847 20.4999C15.9706 20.4999 15.4776 20.2956 15.114 19.9321C14.7505 19.5686 14.5463 19.0755 14.5463 18.5614V8.66719C14.5463 7.62825 14.959 6.63187 15.6936 5.89723C16.4283 5.1626 17.4246 4.74988 18.4636 4.74988ZM18.4636 4.74988V5.27488L18.4628 4.74988C18.4631 4.74988 18.4633 4.74988 18.4636 4.74988Z"
    fill="white"
  />
</svg>