<svg width="26" height="39" viewBox="0 0 26 39" fill="none" xmlns="http://www.w3.org/2000/svg">
<path fill-rule="evenodd" clip-rule="evenodd" d="M26 13.2371C26 20.4865 15.6229 30.9476 13 32.5765C10.2547 30.8635 0 20.5476 0 13.2371C0 5.92647 5.81941 0 13 0C20.1806 0 26 5.98765 26 13.2371ZM18.0548 29.5252C18.6054 28.9287 19.156 28.2864 19.7065 27.6211L19.6989 27.6134C22.796 28.6611 24.7613 30.4505 24.7613 32.5687C24.7613 35.964 19.6989 38.5258 12.9924 38.5258C6.28596 38.5258 1.2236 35.964 1.2236 32.5687C1.2236 30.4734 3.15831 28.6993 6.21713 27.644C6.76772 28.3093 7.32596 28.944 7.87655 29.5405C5.10831 30.2899 3.52537 31.567 3.52537 32.5764C3.52537 34.1058 7.12713 36.2393 13.0001 36.2393C18.873 36.2393 22.4748 34.1058 22.4748 32.5764C22.4748 31.5593 20.8689 30.267 18.0548 29.5252Z" fill="#0090F8"/>
<path d="M20.0922 9.98008C19.9673 9.93096 19.8342 9.90591 19.6999 9.90625H19.6858C18.9767 9.9168 18.1815 10.5809 17.7642 11.5853C17.2639 12.787 17.4942 14.0164 18.2824 14.3324C18.4072 14.3816 18.5402 14.4066 18.6744 14.4063C19.387 14.4063 20.1931 13.7383 20.614 12.7272C21.1107 11.5255 20.8769 10.2961 20.0922 9.98008ZM15.517 14.6692C14.5397 13.0475 14.1178 12.4375 12.9998 12.4375C11.8818 12.4375 11.4565 13.0513 10.4791 14.6692C9.64239 16.053 7.95138 16.1683 7.5295 17.3436C7.44391 17.5588 7.40092 17.7887 7.40294 18.0203C7.40294 18.9762 8.13419 19.75 9.03419 19.75C10.1522 19.75 11.6744 18.8574 13.0033 18.8574C14.3322 18.8574 15.8475 19.75 16.9654 19.75C17.8654 19.75 18.5932 18.9766 18.5932 18.0203C18.594 17.7884 18.5498 17.5586 18.4631 17.3436C18.0412 16.1641 16.3537 16.053 15.517 14.6692ZM10.7677 10.8906C10.8148 10.8907 10.8618 10.8871 10.9084 10.8801C11.7243 10.7616 12.2338 9.63098 12.0488 8.3541C11.8748 7.15035 11.1443 6.25 10.3803 6.25C10.3332 6.24996 10.2862 6.25348 10.2397 6.26055C9.42372 6.37902 8.91431 7.50965 9.09923 8.78652C9.27325 9.98676 10.0038 10.8906 10.7677 10.8906ZM16.8993 8.78652C17.0843 7.50965 16.5749 6.37902 15.7589 6.26055C15.7123 6.25348 15.6653 6.24996 15.6183 6.25C14.8543 6.25 14.1252 7.15035 13.9508 8.3541C13.7659 9.63098 14.2753 10.7616 15.0913 10.8801C15.1378 10.8871 15.1848 10.8907 15.2319 10.8906C15.9958 10.8906 16.7264 9.98676 16.8993 8.78652ZM7.71829 14.3324C8.50544 14.016 8.73536 12.7855 8.23579 11.5853C7.81532 10.5742 7.00989 9.90625 6.29833 9.90625C6.16417 9.90587 6.03116 9.93092 5.90634 9.98008C5.11919 10.2965 4.88927 11.527 5.38884 12.7272C5.80931 13.7383 6.61474 14.4063 7.3263 14.4063C7.46045 14.4066 7.59346 14.3816 7.71829 14.3324Z" stroke="white" stroke-miterlimit="10"/>
</svg>
