<svg width="28" height="40" viewBox="-1 -1 28 40" fill="none" xmlns="http://www.w3.org/2000/svg">
  <defs>
    <linearGradient id="goldFill4" x1="0" y1="0" x2="0" y2="1">
      <stop offset="0%" stop-color="#FFF0A0"/>
      <stop offset="20%" stop-color="#FFD700"/>
      <stop offset="50%" stop-color="#B8860B"/>
      <stop offset="75%" stop-color="#FFD700"/>
      <stop offset="100%" stop-color="#8B6914"/>
    </linearGradient>

    <filter id="shinyGlow4" x="-30%" y="-30%" width="160%" height="160%">
      <feGaussianBlur stdDeviation="0.8" result="blur1"/>
      <feGaussianBlur stdDeviation="0.3" result="blur2"/>
      <feMerge>
        <feMergeNode in="blur1"/>
        <feMergeNode in="blur2"/>
        <feMergeNode in="SourceGraphic"/>
      </feMerge>
    </filter>

    <linearGradient id="outlineGradient4" x1="0" y1="0" x2="1" y2="1">
      <stop offset="0%" stop-color="#FFFDE0"/>
      <stop offset="30%" stop-color="#FFE55C"/>
      <stop offset="60%" stop-color="#FFC200"/>
      <stop offset="80%" stop-color="#FFFDE0"/>
      <stop offset="100%" stop-color="#FFD700"/>
    </linearGradient>
  </defs>

  <!-- Glowing outline layer -->
  <g filter="url(#shinyGlow4)">
    <path fill-rule="evenodd" clip-rule="evenodd"
      d="M26 13.2371C26 20.4865 15.6229 30.9476 13 32.5765C10.2547 30.8635 0 20.5476 0 13.2371C0 5.92647 5.81941 0 13 0C20.1806 0 26 5.98765 26 13.2371ZM18.0548 29.5252C18.6054 28.9287 19.156 28.2864 19.7065 27.6211L19.6989 27.6134C22.796 28.6611 24.7613 30.4505 24.7613 32.5687C24.7613 35.964 19.6989 38.5258 12.9924 38.5258C6.28596 38.5258 1.2236 35.964 1.2236 32.5687C1.2236 30.4734 3.15831 28.6993 6.21713 27.644C6.76772 28.3093 7.32596 28.944 7.87655 29.5405C5.10831 30.2899 3.52537 31.567 3.52537 32.5764C3.52537 34.1058 7.12713 36.2393 13.0001 36.2393C18.873 36.2393 22.4748 34.1058 22.4748 32.5764C22.4748 31.5593 20.8689 30.267 18.0548 29.5252Z"
      fill="none"
      stroke="url(#outlineGradient4)"
      stroke-width="1.5"
      stroke-linejoin="round"
    />
  </g>

  <!-- Main gold body -->
  <path fill-rule="evenodd" clip-rule="evenodd"
    d="M26 13.2371C26 20.4865 15.6229 30.9476 13 32.5765C10.2547 30.8635 0 20.5476 0 13.2371C0 5.92647 5.81941 0 13 0C20.1806 0 26 5.98765 26 13.2371ZM18.0548 29.5252C18.6054 28.9287 19.156 28.2864 19.7065 27.6211L19.6989 27.6134C22.796 28.6611 24.7613 30.4505 24.7613 32.5687C24.7613 35.964 19.6989 38.5258 12.9924 38.5258C6.28596 38.5258 1.2236 35.964 1.2236 32.5687C1.2236 30.4734 3.15831 28.6993 6.21713 27.644C6.76772 28.3093 7.32596 28.944 7.87655 29.5405C5.10831 30.2899 3.52537 31.567 3.52537 32.5764C3.52537 34.1058 7.12713 36.2393 13.0001 36.2393C18.873 36.2393 22.4748 34.1058 22.4748 32.5764C22.4748 31.5593 20.8689 30.267 18.0548 29.5252Z"
    fill="url(#goldFill4)"
  />

  <!-- Icon path — white -->
  <path
    d="M17.2531 9.59113C17.2531 9.8149 17.1642 10.0295 17.0059 10.1877C16.8477 10.346 16.6331 10.4349 16.4093 10.4349C16.1855 10.4349 15.9709 10.346 15.8127 10.1877C15.6544 10.0295 15.5656 9.8149 15.5656 9.59113C15.5656 9.36735 15.6544 9.15274 15.8127 8.99451C15.9709 8.83627 16.1855 8.74738 16.4093 8.74738C16.6331 8.74738 16.8477 8.83627 17.0059 8.99451C17.1642 9.15274 17.2531 9.36735 17.2531 9.59113ZM15.3968 6.24988C14.2244 6.25059 13.1003 6.71663 12.2713 7.54562C11.4423 8.37461 10.9763 9.49876 10.9756 10.6711C10.9756 10.9324 11.0093 11.1841 11.0498 11.4163C11.0555 11.4456 11.0541 11.4757 11.0459 11.5043C11.0377 11.533 11.0228 11.5592 11.0026 11.581L6.79393 15.7903C6.44577 16.1383 6.25007 16.6103 6.24988 17.1025V18.5686C6.24988 19.2207 6.77908 19.7499 7.43113 19.7499H9.11863C9.43192 19.7499 9.73237 19.6254 9.9539 19.4039C10.1754 19.1824 10.2999 18.8819 10.2999 18.5686V17.7249H11.4818C11.9476 17.7249 12.3256 17.3469 12.3256 16.8811V15.6999H13.5068C13.7253 15.7 13.9353 15.6154 14.0927 15.4638C14.2501 15.3122 14.3425 15.1055 14.3506 14.8872C14.6854 14.9736 15.0391 15.0249 15.3968 15.0249C16.5692 15.0242 17.6933 14.5581 18.5223 13.7291C19.3513 12.9001 19.8173 11.776 19.8181 10.6036C19.8181 8.1527 17.8248 6.24988 15.3968 6.24988ZM11.9881 10.6711C11.9888 9.76729 12.3481 8.90068 12.9872 8.26157C13.6264 7.62246 14.493 7.26309 15.3968 7.26238C17.2882 7.26238 18.8056 8.73455 18.8056 10.6036C18.8048 11.5075 18.4455 12.3741 17.8064 13.0132C17.1673 13.6523 16.3006 14.0117 15.3968 14.0124C14.9378 14.0124 14.4653 13.897 14.0434 13.7154C13.9664 13.6823 13.8823 13.6688 13.7988 13.6763C13.7152 13.6837 13.6349 13.7118 13.5649 13.7579C13.4949 13.8041 13.4374 13.867 13.3977 13.9408C13.358 14.0147 13.3373 14.0973 13.3374 14.1811V14.6874H12.1568C11.6911 14.6874 11.3131 15.0654 11.3131 15.5311V16.7124H10.1318C9.66605 16.7124 9.28805 17.0904 9.28805 17.5561V18.5686C9.28805 18.6134 9.27027 18.6563 9.23863 18.688C9.20698 18.7196 9.16406 18.7374 9.1193 18.7374H7.4318C7.38705 18.7374 7.34413 18.7196 7.31248 18.688C7.28083 18.6563 7.26305 18.6134 7.26305 18.5686V17.1025C7.26305 16.8791 7.35215 16.6638 7.5101 16.5058L11.7194 12.2972C11.8551 12.1607 11.9558 11.9934 12.0129 11.8096C12.07 11.6258 12.0819 11.4309 12.0475 11.2415C12.0115 11.0534 11.9916 10.8626 11.9881 10.6711Z"
    fill="white"
  />
</svg>