<svg width="28" height="40" viewBox="-1 -1 28 40" fill="none" xmlns="http://www.w3.org/2000/svg">
  <defs>
    <linearGradient id="goldFill3" x1="0" y1="0" x2="0" y2="1">
      <stop offset="0%" stop-color="#FFF0A0"/>
      <stop offset="20%" stop-color="#FFD700"/>
      <stop offset="50%" stop-color="#B8860B"/>
      <stop offset="75%" stop-color="#FFD700"/>
      <stop offset="100%" stop-color="#8B6914"/>
    </linearGradient>

    <filter id="shinyGlow3" x="-30%" y="-30%" width="160%" height="160%">
      <feGaussianBlur stdDeviation="0.8" result="blur1"/>
      <feGaussianBlur stdDeviation="0.3" result="blur2"/>
      <feMerge>
        <feMergeNode in="blur1"/>
        <feMergeNode in="blur2"/>
        <feMergeNode in="SourceGraphic"/>
      </feMerge>
    </filter>

    <linearGradient id="outlineGradient3" x1="0" y1="0" x2="1" y2="1">
      <stop offset="0%" stop-color="#FFFDE0"/>
      <stop offset="30%" stop-color="#FFE55C"/>
      <stop offset="60%" stop-color="#FFC200"/>
      <stop offset="80%" stop-color="#FFFDE0"/>
      <stop offset="100%" stop-color="#FFD700"/>
    </linearGradient>
  </defs>

  <!-- Glowing outline layer -->
  <g filter="url(#shinyGlow3)">
    <path fill-rule="evenodd" clip-rule="evenodd"
      d="M26 13.2371C26 20.4865 15.6229 30.9476 13 32.5765C10.2547 30.8635 0 20.5476 0 13.2371C0 5.92647 5.81941 0 13 0C20.1806 0 26 5.98765 26 13.2371ZM18.0548 29.5252C18.6054 28.9287 19.156 28.2864 19.7065 27.6211L19.6989 27.6134C22.796 28.6611 24.7613 30.4505 24.7613 32.5687C24.7613 35.964 19.6989 38.5258 12.9924 38.5258C6.28596 38.5258 1.2236 35.964 1.2236 32.5687C1.2236 30.4734 3.15831 28.6993 6.21713 27.644C6.76772 28.3093 7.32596 28.944 7.87655 29.5405C5.10831 30.2899 3.52537 31.567 3.52537 32.5764C3.52537 34.1058 7.12713 36.2393 13.0001 36.2393C18.873 36.2393 22.4748 34.1058 22.4748 32.5764C22.4748 31.5593 20.8689 30.267 18.0548 29.5252Z"
      fill="none"
      stroke="url(#outlineGradient3)"
      stroke-width="1.5"
      stroke-linejoin="round"
    />
  </g>

  <!-- Main gold body -->
  <path fill-rule="evenodd" clip-rule="evenodd"
    d="M26 13.2371C26 20.4865 15.6229 30.9476 13 32.5765C10.2547 30.8635 0 20.5476 0 13.2371C0 5.92647 5.81941 0 13 0C20.1806 0 26 5.98765 26 13.2371ZM18.0548 29.5252C18.6054 28.9287 19.156 28.2864 19.7065 27.6211L19.6989 27.6134C22.796 28.6611 24.7613 30.4505 24.7613 32.5687C24.7613 35.964 19.6989 38.5258 12.9924 38.5258C6.28596 38.5258 1.2236 35.964 1.2236 32.5687C1.2236 30.4734 3.15831 28.6993 6.21713 27.644C6.76772 28.3093 7.32596 28.944 7.87655 29.5405C5.10831 30.2899 3.52537 31.567 3.52537 32.5764C3.52537 34.1058 7.12713 36.2393 13.0001 36.2393C18.873 36.2393 22.4748 34.1058 22.4748 32.5764C22.4748 31.5593 20.8689 30.267 18.0548 29.5252Z"
    fill="url(#goldFill3)"
  />

  <!-- Icon path — white fill + white stroke -->
  <path
    d="M9.55268 7.79426H9.55267C9.2615 7.7942 8.97376 7.85714 8.70921 7.97876C8.44467 8.10039 8.20957 8.27782 8.02006 8.49887L9.55268 7.79426ZM9.55268 7.79426H10.6429C10.7874 7.79426 10.926 7.85167 11.0282 7.95386C11.1303 8.05605 11.1878 8.19465 11.1878 8.33916C11.1878 8.48368 11.1303 8.62228 11.0282 8.72447C10.926 8.82665 10.7874 8.88406 10.6429 8.88406H9.55271L9.55268 7.79426ZM5.27989 11.6957L8.02006 8.49887L9.18295 9.00923C9.06698 9.06253 8.96394 9.14032 8.88089 9.23724L8.84719 9.20835L8.84719 9.20835L7.09171 11.2567L7.02891 11.33H7.12541H10.3482H10.3482C10.8336 11.3299 11.3028 11.5047 11.6697 11.8224C12.0367 12.1401 12.2768 12.5794 12.3462 13.0598L12.3517 13.0978H12.3901H13.6099H13.6484L13.6538 13.0598C13.7232 12.5794 13.9633 12.1401 14.3303 11.8224C14.6972 11.5047 15.1664 11.3299 15.6518 11.33H18.8746H18.9711L18.9083 11.2567L17.1522 9.20835C17.1522 9.20835 17.1522 9.20835 17.1522 9.20835C17.0651 9.10664 16.957 9.025 16.8353 8.96903C16.7136 8.91305 16.5813 8.88407 16.4473 8.88406H15.3571C15.2126 8.88406 15.074 8.82665 14.9718 8.72447C14.8697 8.62228 14.8122 8.48368 14.8122 8.33916C14.8122 8.19465 14.8697 8.05605 14.9718 7.95386C15.074 7.85167 15.2126 7.79426 15.3571 7.79426H16.4473C16.7384 7.79428 17.026 7.85726 17.2905 7.97888C17.5549 8.10051 17.7899 8.27789 17.9794 8.49887L20.7195 11.6957L20.7195 11.6958C21.0332 12.0615 21.2056 12.5274 21.2056 13.0093V15.7052C21.2056 16.3968 20.9309 17.06 20.4419 17.5489C19.9529 18.0379 19.2897 18.3126 18.5982 18.3126H16.2411C15.5495 18.3126 14.8863 18.0379 14.3974 17.5489C13.9084 17.06 13.6337 16.3968 13.6337 15.7052V14.232V14.1876H13.5893H12.4107H12.3663V14.232V15.7052C12.3663 16.3968 12.0916 17.06 11.6026 17.5489C11.1137 18.0379 10.4505 18.3126 9.75893 18.3126H7.40179C6.71026 18.3126 6.04706 18.0379 5.55808 17.5489C5.06909 17.06 4.79439 16.3968 4.79439 15.7052V13.0093L4.79439 13.0092C4.79426 12.5275 4.96646 12.0616 5.27988 11.6957C5.27988 11.6957 5.27988 11.6957 5.27989 11.6957ZM20.1158 15.7052V13.3481C20.1158 13.1019 20.018 12.8658 19.8439 12.6917C19.6698 12.5176 19.4337 12.4198 19.1875 12.4198H15.6518C15.4056 12.4198 15.1695 12.5176 14.9954 12.6917C14.8213 12.8658 14.7235 13.1019 14.7235 13.3481V15.7052C14.7235 16.1077 14.8834 16.4937 15.168 16.7783C15.4526 17.0629 15.8386 17.2228 16.2411 17.2228H18.5982C19.0007 17.2228 19.3867 17.0629 19.6713 16.7783C19.9559 16.4937 20.1158 16.1077 20.1158 15.7052ZM11.2765 15.7052V13.3481C11.2765 13.1019 11.1787 12.8658 11.0046 12.6917C10.8305 12.5176 10.5944 12.4198 10.3482 12.4198H6.8125C6.5663 12.4198 6.33018 12.5176 6.15608 12.6917C5.98199 12.8658 5.88419 13.1019 5.88419 13.3481V15.7052C5.88419 16.1077 6.04407 16.4937 6.32868 16.7783C6.61329 17.0629 6.99929 17.2228 7.40179 17.2228H9.75893C10.1614 17.2228 10.5474 17.0629 10.832 16.7783C11.1166 16.4937 11.2765 16.1077 11.2765 15.7052Z"
    fill="white"
    stroke="white"
    stroke-width="0.0887733"
  />
</svg>