<svg width="26" height="39" viewBox="0 0 26 39" fill="none" xmlns="http://www.w3.org/2000/svg">
<path fill-rule="evenodd" clip-rule="evenodd" d="M26 13.2371C26 20.4865 15.6229 30.9476 13 32.5765C10.2547 30.8635 0 20.5476 0 13.2371C0 5.92647 5.81941 0 13 0C20.1806 0 26 5.98765 26 13.2371ZM18.0548 29.5252C18.6054 28.9287 19.156 28.2864 19.7065 27.6211L19.6989 27.6134C22.796 28.6611 24.7613 30.4505 24.7613 32.5687C24.7613 35.964 19.6989 38.5258 12.9924 38.5258C6.28596 38.5258 1.2236 35.964 1.2236 32.5687C1.2236 30.4734 3.15831 28.6993 6.21713 27.644C6.76772 28.3093 7.32596 28.944 7.87655 29.5405C5.10831 30.2899 3.52537 31.567 3.52537 32.5764C3.52537 34.1058 7.12713 36.2393 13.0001 36.2393C18.873 36.2393 22.4748 34.1058 22.4748 32.5764C22.4748 31.5593 20.8689 30.267 18.0548 29.5252Z" fill="#0090F8"/>
<path d="M9.7655 5.12488C9.28065 5.12488 8.81566 5.31748 8.47282 5.66032C8.12998 6.00316 7.93738 6.46815 7.93738 6.953V19.0468C7.93738 19.5316 8.12998 19.9966 8.47282 20.3394C8.81566 20.6823 9.28065 20.8749 9.7655 20.8749H16.2343C16.7191 20.8749 17.1841 20.6823 17.5269 20.3394C17.8698 19.9966 18.0624 19.5316 18.0624 19.0468V6.953C18.0624 6.46815 17.8698 6.00316 17.5269 5.66032C17.1841 5.31748 16.7191 5.12488 16.2343 5.12488H9.7655ZM9.06238 6.953C9.06238 6.56488 9.37738 6.24988 9.7655 6.24988H16.2343C16.6224 6.24988 16.9374 6.56488 16.9374 6.953V19.0468C16.9374 19.4349 16.6224 19.7499 16.2343 19.7499H9.7655C9.37738 19.7499 9.06238 19.4349 9.06238 19.0468V6.953ZM11.8749 17.4999C11.7257 17.4999 11.5826 17.5591 11.4771 17.6646C11.3716 17.7701 11.3124 17.9132 11.3124 18.0624C11.3124 18.2116 11.3716 18.3546 11.4771 18.4601C11.5826 18.5656 11.7257 18.6249 11.8749 18.6249H14.1249C14.2741 18.6249 14.4171 18.5656 14.5226 18.4601C14.6281 18.3546 14.6874 18.2116 14.6874 18.0624C14.6874 17.9132 14.6281 17.7701 14.5226 17.6646C14.4171 17.5591 14.2741 17.4999 14.1249 17.4999H11.8749Z" fill="white"/>
</svg>
