<svg width="26" height="39" viewBox="0 0 26 39" fill="none" xmlns="http://www.w3.org/2000/svg">
<path fill-rule="evenodd" clip-rule="evenodd" d="M26 13.2371C26 20.4865 15.6229 30.9476 13 32.5765C10.2547 30.8635 0 20.5476 0 13.2371C0 5.92647 5.81941 0 13 0C20.1806 0 26 5.98765 26 13.2371ZM18.0548 29.5252C18.6054 28.9287 19.156 28.2864 19.7065 27.6211L19.6989 27.6134C22.796 28.6611 24.7613 30.4505 24.7613 32.5687C24.7613 35.964 19.6989 38.5258 12.9924 38.5258C6.28596 38.5258 1.2236 35.964 1.2236 32.5687C1.2236 30.4734 3.15831 28.6993 6.21713 27.644C6.76772 28.3093 7.32596 28.944 7.87655 29.5405C5.10831 30.2899 3.52537 31.567 3.52537 32.5764C3.52537 34.1058 7.12713 36.2393 13.0001 36.2393C18.873 36.2393 22.4748 34.1058 22.4748 32.5764C22.4748 31.5593 20.8689 30.267 18.0548 29.5252Z" fill="#0090F8"/>
<path d="M19.1876 13C19.04 12.9998 18.8925 13.0116 18.7468 13.0352L16.3393 6.61492C16.299 6.50773 16.2271 6.41536 16.133 6.35015C16.0389 6.28494 15.9271 6.25 15.8126 6.25H13.5626C13.4134 6.25 13.2704 6.30926 13.1649 6.41475C13.0594 6.52024 13.0001 6.66332 13.0001 6.8125C13.0001 6.96168 13.0594 7.10476 13.1649 7.21025C13.2704 7.31574 13.4134 7.375 13.5626 7.375H15.4231L17.6942 13.431C17.3714 13.6331 17.0928 13.8985 16.8753 14.2111C16.6578 14.5237 16.5058 14.8771 16.4286 15.25H13.6006L11.8428 10.5524C11.8024 10.4447 11.7299 10.3519 11.635 10.2866C11.5402 10.2214 11.4277 10.1868 11.3126 10.1875H5.68762C5.53844 10.1875 5.39536 10.2468 5.28987 10.3523C5.18439 10.4577 5.12512 10.6008 5.12512 10.75C5.12512 10.8992 5.18439 11.0423 5.28987 11.1477C5.39536 11.2532 5.53844 11.3125 5.68762 11.3125H6.25012V12.254C5.57738 12.5742 5.00905 13.0784 4.61088 13.7081C4.2127 14.3378 4.00095 15.0674 4.00012 15.8125C4.00012 15.9617 4.05939 16.1048 4.16487 16.2102C4.27036 16.3157 4.41344 16.375 4.56262 16.375H5.18137C5.31047 17.0108 5.65541 17.5824 6.15773 17.993C6.66005 18.4035 7.28886 18.6278 7.93762 18.6278C8.58638 18.6278 9.2152 18.4035 9.71752 17.993C10.2198 17.5824 10.5648 17.0108 10.6939 16.375H16.4314C16.5378 16.8964 16.79 17.3769 17.1586 17.7607C17.5272 18.1445 17.9971 18.4158 18.5138 18.5432C19.0304 18.6706 19.5727 18.6488 20.0774 18.4803C20.5822 18.3119 21.0288 18.0037 21.3654 17.5915C21.702 17.1793 21.9148 16.6801 21.979 16.1519C22.0432 15.6236 21.9562 15.088 21.7282 14.6072C21.5001 14.1264 21.1404 13.7202 20.6907 13.4357C20.241 13.1512 19.7198 13.0001 19.1876 13ZM7.00036 13.1596C7.10995 13.1208 7.20484 13.049 7.27195 12.9541C7.33906 12.8591 7.3751 12.7457 7.37512 12.6295V11.3125H10.9231L12.3997 15.25H5.18208C5.2794 14.7744 5.49795 14.3321 5.81652 13.9659C6.13509 13.5996 6.54288 13.3219 7.00036 13.1596ZM7.93762 17.5C7.58875 17.4999 7.24848 17.3917 6.96365 17.1902C6.67883 16.9887 6.46345 16.7039 6.34715 16.375H9.52809C9.4118 16.7039 9.19642 16.9887 8.91159 17.1902C8.62677 17.3917 8.2865 17.4999 7.93762 17.5ZM19.1876 17.5C18.8417 17.4996 18.5043 17.3929 18.221 17.1944C17.9377 16.9959 17.7223 16.7151 17.6039 16.3901C17.4855 16.065 17.4699 15.7115 17.5591 15.3773C17.6483 15.0431 17.8381 14.7443 18.1027 14.5216L18.661 16.0101C18.6869 16.0793 18.7263 16.1428 18.7767 16.1968C18.8272 16.2509 18.8878 16.2945 18.9551 16.3251C19.0225 16.3557 19.0951 16.3728 19.1691 16.3753C19.243 16.3778 19.3167 16.3658 19.3859 16.3398C19.4552 16.3139 19.5186 16.2746 19.5727 16.2241C19.6267 16.1736 19.6703 16.113 19.7009 16.0457C19.7315 15.9784 19.7486 15.9057 19.7511 15.8318C19.7537 15.7579 19.7416 15.6842 19.7157 15.6149L19.156 14.125H19.1876C19.6352 14.125 20.0644 14.3028 20.3809 14.6193C20.6973 14.9357 20.8751 15.3649 20.8751 15.8125C20.8751 16.2601 20.6973 16.6893 20.3809 17.0057C20.0644 17.3222 19.6352 17.5 19.1876 17.5Z" fill="white"/>
</svg>
