<svg width="26" height="39" viewBox="0 0 26 39" fill="none" xmlns="http://www.w3.org/2000/svg">
<path fill-rule="evenodd" clip-rule="evenodd" d="M26 13.2371C26 20.4865 15.6229 30.9476 13 32.5765C10.2547 30.8635 0 20.5476 0 13.2371C0 5.92647 5.81941 0 13 0C20.1806 0 26 5.98765 26 13.2371ZM18.0548 29.5252C18.6054 28.9287 19.156 28.2864 19.7065 27.6211L19.6989 27.6134C22.796 28.6611 24.7613 30.4505 24.7613 32.5687C24.7613 35.964 19.6989 38.5258 12.9924 38.5258C6.28596 38.5258 1.2236 35.964 1.2236 32.5687C1.2236 30.4734 3.15831 28.6993 6.21713 27.644C6.76772 28.3093 7.32596 28.944 7.87655 29.5405C5.10831 30.2899 3.52537 31.567 3.52537 32.5764C3.52537 34.1058 7.12713 36.2393 13.0001 36.2393C18.873 36.2393 22.4748 34.1058 22.4748 32.5764C22.4748 31.5593 20.8689 30.267 18.0548 29.5252Z" fill="#FF5449"/>
<path d="M12.847 5.77486C12.7289 5.72754 12.5971 5.72754 12.479 5.77486L6.57593 8.13591L12.663 10.5701L18.7501 8.13591L12.847 5.77486ZM19.5869 8.86687L13.1576 11.4386V19.2745L19.5869 16.7027V8.86687ZM12.1685 19.2755V11.4376L5.73913 8.86687V16.7037L12.1685 19.2755ZM12.1121 4.85596C12.4658 4.71452 12.8603 4.71452 13.214 4.85596L20.2654 7.67695C20.3571 7.71369 20.4357 7.77704 20.4911 7.85884C20.5464 7.94064 20.576 8.03714 20.576 8.13591V16.7037C20.5759 16.9014 20.5166 17.0945 20.4057 17.2581C20.2948 17.4217 20.1374 17.5483 19.9539 17.6216L12.847 20.4644C12.7289 20.5117 12.5971 20.5117 12.479 20.4644L5.37315 17.6216C5.18942 17.5485 5.03184 17.4219 4.92076 17.2583C4.80969 17.0947 4.7502 16.9015 4.75 16.7037V8.13591C4.75002 8.03714 4.77962 7.94064 4.83497 7.85884C4.89033 7.77704 4.96891 7.71369 5.06059 7.67695L12.1121 4.85596Z" fill="white"/>
</svg>
