<svg width="24" height="24" viewBox="0 0 24 24" fill="none" xmlns="http://www.w3.org/2000/svg">
<path d="M5.99979 3.99982H8.99979C8.99979 3.99982 8.99979 6.99982 11.9998 6.99982C14.9998 6.99982 14.9998 3.99982 14.9998 3.99982H17.9998M17.9998 10.9998V19.3998C17.9998 19.5589 17.9366 19.7116 17.8241 19.8241C17.7115 19.9366 17.5589 19.9998 17.3998 19.9998H6.59979C6.44066 19.9998 6.28804 19.9366 6.17552 19.8241C6.063 19.7116 5.99979 19.5589 5.99979 19.3998V10.9998M17.9998 3.99982L22.4428 5.77682C22.5905 5.83596 22.7087 5.95137 22.7713 6.09765C22.834 6.24392 22.8359 6.40909 22.7768 6.55682L21.1508 10.6228C21.1062 10.7341 21.0294 10.8295 20.9301 10.8967C20.8308 10.9639 20.7137 10.9998 20.5938 10.9998H17.9998M5.99979 3.99982L1.55679 5.77682C1.40906 5.83596 1.29089 5.95137 1.22825 6.09765C1.16561 6.24392 1.16365 6.40909 1.22279 6.55682L2.84879 10.6228C2.89334 10.7341 2.97022 10.8295 3.06949 10.8967C3.16877 10.9639 3.2859 10.9998 3.40579 10.9998H5.99979" stroke="#555" stroke-width="1.3316" stroke-linecap="round" stroke-linejoin="round"/>
</svg>
