<svg width="24" height="24" viewBox="0 0 24 24" fill="none" xmlns="http://www.w3.org/2000/svg">
<path d="M20.2501 12C20.0532 11.9998 19.8567 12.0154 19.6623 12.0469L16.4523 3.48656C16.3987 3.34364 16.3027 3.22048 16.1773 3.13353C16.0518 3.04659 15.9028 3 15.7501 3H12.7501C12.5512 3 12.3604 3.07902 12.2198 3.21967C12.0791 3.36032 12.0001 3.55109 12.0001 3.75C12.0001 3.94891 12.0791 4.13968 12.2198 4.28033C12.3604 4.42098 12.5512 4.5 12.7501 4.5H15.2307L18.2589 12.5747C17.8285 12.8441 17.4571 13.1979 17.1671 13.6148C16.8771 14.0316 16.6744 14.5028 16.5714 15H12.8007L10.457 8.73656C10.4031 8.59289 10.3064 8.4692 10.18 8.38219C10.0536 8.29519 9.90357 8.24905 9.75012 8.25H2.25012C2.05121 8.25 1.86044 8.32902 1.71979 8.46967C1.57914 8.61032 1.50012 8.80109 1.50012 9C1.50012 9.19891 1.57914 9.38968 1.71979 9.53033C1.86044 9.67098 2.05121 9.75 2.25012 9.75H3.00012V11.0053C2.10314 11.4323 1.34536 12.1045 0.814461 12.9441C0.283558 13.7838 0.00122483 14.7566 0.00012207 15.75C0.00012207 15.9489 0.0791397 16.1397 0.219792 16.2803C0.360444 16.421 0.55121 16.5 0.750122 16.5H1.57512C1.74726 17.3477 2.20717 18.1099 2.87693 18.6573C3.54669 19.2047 4.38511 19.5038 5.25012 19.5038C6.11514 19.5038 6.95356 19.2047 7.62332 18.6573C8.29308 18.1099 8.75299 17.3477 8.92512 16.5H16.5751C16.717 17.1952 17.0532 17.8359 17.5447 18.3476C18.0362 18.8593 18.6628 19.2211 19.3517 19.391C20.0406 19.5608 20.7635 19.5317 21.4365 19.3071C22.1096 19.0825 22.7051 18.6716 23.1539 18.122C23.6027 17.5725 23.8863 16.9069 23.972 16.2025C24.0576 15.4982 23.9416 14.784 23.6376 14.1429C23.3335 13.5019 22.8538 12.9602 22.2542 12.5809C21.6546 12.2016 20.9596 12.0001 20.2501 12ZM4.00043 12.2128C4.14656 12.1611 4.27307 12.0653 4.36256 11.9387C4.45204 11.8122 4.5001 11.661 4.50012 11.5059V9.75H9.23075L11.1995 15H1.57606C1.70583 14.3659 1.99722 13.7761 2.42198 13.2878C2.84674 12.7995 3.39046 12.4292 4.00043 12.2128ZM5.25012 18C4.78495 17.9999 4.33126 17.8555 3.9515 17.5869C3.57173 17.3183 3.28455 16.9386 3.1295 16.5H7.37075C7.21569 16.9386 6.92852 17.3183 6.54875 17.5869C6.16898 17.8555 5.71529 17.9999 5.25012 18ZM20.2501 18C19.7889 17.9995 19.339 17.8572 18.9613 17.5925C18.5836 17.3278 18.2964 16.9535 18.1385 16.5201C17.9807 16.0867 17.9598 15.6153 18.0787 15.1697C18.1977 14.7241 18.4507 14.3258 18.8036 14.0287L19.5479 16.0134C19.5825 16.1058 19.635 16.1904 19.7023 16.2625C19.7696 16.3345 19.8504 16.3926 19.9402 16.4335C20.0299 16.4743 20.1268 16.497 20.2254 16.5004C20.3239 16.5038 20.4222 16.4877 20.5145 16.4531C20.6068 16.4185 20.6915 16.3661 20.7635 16.2988C20.8356 16.2315 20.8937 16.1507 20.9345 16.0609C20.9754 15.9712 20.9981 15.8742 21.0015 15.7757C21.0049 15.6771 20.9888 15.5789 20.9542 15.4866L20.2079 13.5H20.2501C20.8469 13.5 21.4192 13.7371 21.8411 14.159C22.2631 14.581 22.5001 15.1533 22.5001 15.75C22.5001 16.3467 22.2631 16.919 21.8411 17.341C21.4192 17.7629 20.8469 18 20.2501 18Z" fill="#555"/>
</svg>
