<svg width="24" height="24" viewBox="0 0 24 24" fill="none" xmlns="http://www.w3.org/2000/svg">
<path d="M14.3559 2.595C14.377 2.56847 14.4032 2.5465 14.4331 2.53043C14.4629 2.51436 14.4957 2.50453 14.5295 2.50154C14.5633 2.49855 14.5973 2.50245 14.6295 2.51302C14.6617 2.52358 14.6914 2.54059 14.7169 2.563L15.6389 3.375L12.7389 7H14.6589L16.7649 4.368L18.4169 5.825C18.4657 5.86817 18.4958 5.92871 18.5006 5.99372C18.5055 6.05872 18.4848 6.12306 18.4429 6.173L17.7529 7H19.6969C19.9377 6.64748 20.0413 6.21909 19.9883 5.79549C19.9352 5.37188 19.7292 4.98227 19.4089 4.7L15.7089 1.437C15.5304 1.27981 15.3217 1.16065 15.0956 1.0868C14.8695 1.01295 14.6308 0.985961 14.3939 1.00749C14.157 1.02901 13.927 1.0986 13.718 1.21199C13.5089 1.32538 13.3251 1.48021 13.1779 1.667L8.97588 7H10.8859L14.3559 2.595ZM16.2499 14C16.051 14 15.8602 14.079 15.7195 14.2197C15.5789 14.3603 15.4999 14.5511 15.4999 14.75C15.4999 14.9489 15.5789 15.1397 15.7195 15.2803C15.8602 15.421 16.051 15.5 16.2499 15.5H18.2499C18.4488 15.5 18.6396 15.421 18.7802 15.2803C18.9209 15.1397 18.9999 14.9489 18.9999 14.75C18.9999 14.5511 18.9209 14.3603 18.7802 14.2197C18.6396 14.079 18.4488 14 18.2499 14H16.2499ZM4.49988 7.25C4.49988 7.05109 4.5789 6.86033 4.71955 6.71967C4.8602 6.57902 5.05097 6.5 5.24988 6.5H8.37788L9.56988 5H5.24988C4.65314 5 4.08084 5.23706 3.65889 5.65901C3.23693 6.08097 2.99988 6.65327 2.99988 7.25V17.75C2.99988 18.612 3.34229 19.4386 3.95178 20.0481C4.56127 20.6576 5.38792 21 6.24988 21H18.2499C19.1118 21 19.9385 20.6576 20.548 20.0481C21.1575 19.4386 21.4999 18.612 21.4999 17.75V11.25C21.4999 10.3881 21.1575 9.5614 20.548 8.95191C19.9385 8.34241 19.1118 8 18.2499 8H5.24988C5.05097 8 4.8602 7.92099 4.71955 7.78033C4.5789 7.63968 4.49988 7.44892 4.49988 7.25ZM4.49988 17.75V9.372C4.73588 9.456 4.98588 9.49867 5.24988 9.5H18.2499C19.2159 9.5 19.9999 10.284 19.9999 11.25V17.75C19.9999 18.2141 19.8155 18.6593 19.4873 18.9874C19.1591 19.3156 18.714 19.5 18.2499 19.5H6.24988C5.78575 19.5 5.34063 19.3156 5.01244 18.9874C4.68425 18.6593 4.49988 18.2141 4.49988 17.75Z" fill="#555"/>
</svg>
